<svg width="977" height="200" viewBox="0 0 977 200" fill="none" xmlns="http://www.w3.org/2000/svg">
<path fill-rule="evenodd" clip-rule="evenodd" d="M100 200C155.228 200 200 155.228 200 100C200 44.7715 155.228 0 100 0C44.7715 0 0 44.7715 0 100C0 155.228 44.7715 200 100 200ZM99.9999 158.929C132.545 158.929 158.929 132.545 158.929 100C158.929 67.4546 132.545 41.0714 99.9999 41.0714C67.4546 41.0714 41.0714 67.4546 41.0714 100C41.0714 132.545 67.4546 158.929 99.9999 158.929Z" fill="url(#paint0_linear_2_958)"/>
<path d="M97.3546 146.551C138.016 192.873 178.678 164.367 189.286 144.769C180.446 163.179 152.16 200 100.89 200C51.3891 200 30.7635 171.494 26.6384 157.241C19.5668 133.01 37.2458 119.826 44.3174 116.263C69.0681 107.355 84.9793 130.516 97.3546 146.551Z" fill="url(#paint1_linear_2_958)"/>
<path fill-rule="evenodd" clip-rule="evenodd" d="M91.3182 199.628C94.2365 199.86 97.2692 199.988 100.42 199.999C124.26 199.901 146.132 191.461 163.267 177.446C176.552 166.335 185.1 153.488 189.286 144.769C179.728 162.428 145.768 187.32 109.395 158.184C106.335 158.674 103.197 158.929 100 158.929C73.2579 158.929 50.6764 141.115 43.4734 116.707C35.9467 120.837 19.8338 133.925 26.6385 157.241C29.1618 165.959 37.8591 180.011 55.5628 189.609C66.4964 195.041 78.5653 198.532 91.3182 199.628Z" fill="url(#paint2_linear_2_958)"/>
<path opacity="0.9" d="M103.572 53.5714C62.5001 7.14287 21.4286 35.7142 10.7144 55.3571C19.6429 36.9048 48.2144 0 100 0C150 0 170.833 28.5714 175 42.8572C182.143 67.1429 164.286 80.3571 157.143 83.9286C132.143 92.8571 116.072 69.6429 103.572 53.5714Z" fill="url(#paint3_linear_2_958)"/>
<path d="M962.087 121.75C959.302 121.75 956.666 121.364 954.18 120.593C951.694 119.779 949.744 118.772 948.33 117.572L950.387 113.972C951.759 115 953.516 115.9 955.659 116.672C957.802 117.4 960.052 117.764 962.409 117.764C965.623 117.764 967.937 117.272 969.352 116.286C970.766 115.257 971.473 113.907 971.473 112.236C971.473 110.993 971.066 110.029 970.252 109.343C969.48 108.614 968.452 108.079 967.166 107.736C965.88 107.35 964.444 107.029 962.859 106.772C961.273 106.514 959.687 106.214 958.101 105.872C956.559 105.529 955.144 105.036 953.859 104.393C952.573 103.707 951.523 102.786 950.709 101.629C949.937 100.472 949.551 98.9287 949.551 97.0001C949.551 95.1572 950.066 93.5072 951.094 92.0501C952.123 90.593 953.623 89.4572 955.594 88.643C957.609 87.7858 960.052 87.3572 962.923 87.3572C965.109 87.3572 967.294 87.6572 969.48 88.2572C971.666 88.8144 973.466 89.5644 974.88 90.5072L972.887 94.1715C971.387 93.143 969.78 92.4144 968.066 91.9858C966.352 91.5144 964.637 91.2787 962.923 91.2787C959.88 91.2787 957.63 91.8144 956.173 92.8858C954.759 93.9144 954.052 95.243 954.052 96.8715C954.052 98.1573 954.437 99.1644 955.209 99.893C956.023 100.622 957.073 101.2 958.359 101.629C959.687 102.014 961.123 102.336 962.666 102.593C964.251 102.85 965.816 103.172 967.359 103.557C968.944 103.9 970.38 104.393 971.666 105.036C972.994 105.636 974.044 106.514 974.816 107.672C975.63 108.786 976.037 110.264 976.037 112.107C976.037 114.079 975.48 115.793 974.366 117.25C973.294 118.664 971.709 119.779 969.609 120.593C967.551 121.364 965.044 121.75 962.087 121.75Z" fill="white"/>
<path d="M928.562 121.75C925.047 121.75 921.962 121.022 919.305 119.564C916.647 118.064 914.569 116.029 913.069 113.457C911.569 110.843 910.819 107.864 910.819 104.522C910.819 101.179 911.526 98.2215 912.94 95.6501C914.397 93.0787 916.369 91.0644 918.855 89.6072C921.383 88.1072 924.212 87.3572 927.34 87.3572C930.512 87.3572 933.319 88.0858 935.762 89.543C938.247 90.9572 940.197 92.9715 941.612 95.5858C943.026 98.1573 943.733 101.136 943.733 104.522C943.733 104.736 943.712 104.972 943.669 105.229C943.669 105.443 943.669 105.679 943.669 105.936H914.29V102.529H941.226L939.426 103.879C939.426 101.436 938.89 99.2715 937.819 97.3858C936.79 95.4572 935.376 93.9572 933.576 92.8858C931.776 91.8144 929.697 91.2787 927.34 91.2787C925.026 91.2787 922.947 91.8144 921.105 92.8858C919.262 93.9572 917.826 95.4572 916.797 97.3858C915.769 99.3144 915.255 101.522 915.255 104.007V104.714C915.255 107.286 915.812 109.557 916.926 111.529C918.083 113.457 919.669 114.979 921.683 116.093C923.74 117.164 926.076 117.7 928.69 117.7C930.747 117.7 932.655 117.336 934.412 116.607C936.212 115.879 937.755 114.764 939.04 113.264L941.612 116.222C940.112 118.022 938.226 119.393 935.955 120.336C933.726 121.279 931.262 121.75 928.562 121.75Z" fill="white"/>
<path d="M889.24 121.429V87.6787H893.611V96.8715L893.161 95.2644C894.104 92.693 895.69 90.743 897.918 89.4144C900.147 88.043 902.911 87.3572 906.211 87.3572V91.793C906.04 91.793 905.868 91.793 905.697 91.793C905.525 91.7501 905.354 91.7287 905.183 91.7287C901.625 91.7287 898.84 92.8215 896.825 95.0072C894.811 97.1501 893.804 100.214 893.804 104.2V121.429H889.24Z" fill="white"/>
<path d="M859.998 121.75C857.127 121.75 854.619 121.214 852.477 120.143C850.334 119.071 848.662 117.464 847.462 115.321C846.305 113.179 845.727 110.5 845.727 107.286V87.6786H850.291V106.771C850.291 110.371 851.169 113.093 852.927 114.936C854.727 116.736 857.234 117.636 860.448 117.636C862.805 117.636 864.841 117.164 866.555 116.221C868.312 115.236 869.641 113.821 870.541 111.979C871.484 110.136 871.955 107.929 871.955 105.357V87.6786H876.519V121.429H872.148V112.171L872.855 113.843C871.784 116.329 870.112 118.279 867.841 119.693C865.612 121.064 862.998 121.75 859.998 121.75Z" fill="white"/>
<path d="M830.603 121.75C827.432 121.75 824.989 120.893 823.275 119.178C821.56 117.464 820.703 115.043 820.703 111.914V80.2213H825.268V111.657C825.268 113.628 825.76 115.15 826.746 116.221C827.775 117.293 829.232 117.828 831.118 117.828C833.132 117.828 834.803 117.25 836.132 116.093L837.739 119.371C836.839 120.186 835.746 120.786 834.46 121.171C833.218 121.557 831.932 121.75 830.603 121.75ZM814.66 91.4713V87.6785H835.553V91.4713H814.66Z" fill="white"/>
<path d="M776.489 121.429V87.6787H780.86V96.9358L780.153 95.2001C781.224 92.7572 782.939 90.8501 785.296 89.4787C787.653 88.0644 790.46 87.3572 793.717 87.3572C796.46 87.3572 798.86 87.893 800.917 88.9644C803.017 89.993 804.646 91.5787 805.803 93.7215C807.003 95.8644 807.603 98.5644 807.603 101.822V121.429H803.039V102.272C803.039 98.7144 802.139 96.0358 800.339 94.2358C798.582 92.393 796.096 91.4715 792.882 91.4715C790.482 91.4715 788.382 91.9644 786.582 92.9501C784.825 93.893 783.453 95.2858 782.467 97.1287C781.524 98.9287 781.053 101.114 781.053 103.686V121.429H776.489Z" fill="white"/>
<path d="M752.027 121.75C748.513 121.75 745.427 121.022 742.77 119.564C740.113 118.064 738.034 116.029 736.534 113.457C735.034 110.843 734.284 107.864 734.284 104.522C734.284 101.179 734.991 98.2215 736.406 95.6501C737.863 93.0787 739.834 91.0644 742.32 89.6072C744.848 88.1072 747.677 87.3572 750.806 87.3572C753.977 87.3572 756.784 88.0858 759.227 89.543C761.713 90.9572 763.663 92.9715 765.077 95.5858C766.491 98.1573 767.199 101.136 767.199 104.522C767.199 104.736 767.177 104.972 767.134 105.229C767.134 105.443 767.134 105.679 767.134 105.936H737.756V102.529H764.691L762.891 103.879C762.891 101.436 762.356 99.2715 761.284 97.3858C760.256 95.4572 758.841 93.9572 757.041 92.8858C755.241 91.8144 753.163 91.2787 750.806 91.2787C748.491 91.2787 746.413 91.8144 744.57 92.8858C742.727 93.9572 741.291 95.4572 740.263 97.3858C739.234 99.3144 738.72 101.522 738.72 104.007V104.714C738.72 107.286 739.277 109.557 740.391 111.529C741.548 113.457 743.134 114.979 745.148 116.093C747.206 117.164 749.541 117.7 752.156 117.7C754.213 117.7 756.12 117.336 757.877 116.607C759.677 115.879 761.22 114.764 762.506 113.264L765.077 116.222C763.577 118.022 761.691 119.393 759.42 120.336C757.191 121.279 754.727 121.75 752.027 121.75Z" fill="white"/>
<path d="M710.077 121.429L690.148 76.4287H695.291L713.934 118.793H711.105L729.877 76.4287H734.698L714.77 121.429H710.077Z" fill="white"/>
<path d="M662.231 121.429V73.7287H666.795V121.429H662.231Z" fill="white"/>
<path d="M645.462 121.429V113.972L645.269 112.75V100.279C645.269 97.4072 644.455 95.2001 642.827 93.6572C641.241 92.1144 638.862 91.343 635.691 91.343C633.505 91.343 631.427 91.7072 629.455 92.4358C627.484 93.1644 625.812 94.1287 624.441 95.3287L622.384 91.9215C624.098 90.4644 626.155 89.3501 628.555 88.5787C630.955 87.7644 633.484 87.3572 636.141 87.3572C640.512 87.3572 643.877 88.4501 646.234 90.6358C648.634 92.7787 649.834 96.0572 649.834 100.472V121.429H645.462ZM633.827 121.75C631.298 121.75 629.091 121.343 627.205 120.529C625.362 119.672 623.948 118.514 622.962 117.057C621.977 115.557 621.484 113.843 621.484 111.914C621.484 110.157 621.891 108.572 622.705 107.157C623.562 105.7 624.934 104.543 626.819 103.686C628.748 102.786 631.319 102.336 634.534 102.336H646.169V105.743H634.662C631.405 105.743 629.134 106.322 627.848 107.479C626.605 108.636 625.984 110.072 625.984 111.786C625.984 113.714 626.734 115.257 628.234 116.414C629.734 117.572 631.834 118.15 634.534 118.15C637.105 118.15 639.312 117.572 641.155 116.414C643.041 115.214 644.412 113.5 645.269 111.272L646.298 114.422C645.441 116.65 643.941 118.429 641.798 119.757C639.698 121.086 637.041 121.75 633.827 121.75Z" fill="white"/>
<path d="M610.123 121.75C606.952 121.75 604.509 120.893 602.794 119.178C601.08 117.464 600.223 115.043 600.223 111.914V80.2213H604.787V111.657C604.787 113.628 605.28 115.15 606.266 116.221C607.294 117.293 608.752 117.828 610.637 117.828C612.652 117.828 614.323 117.25 615.652 116.093L617.259 119.371C616.359 120.186 615.266 120.786 613.98 121.171C612.737 121.557 611.452 121.75 610.123 121.75ZM594.18 91.4713V87.6785H615.073V91.4713H594.18Z" fill="white"/>
<path d="M582.753 121.429V87.6787H587.317V121.429H582.753ZM585.067 80.2216C584.124 80.2216 583.331 79.9001 582.689 79.2573C582.046 78.6144 581.724 77.843 581.724 76.943C581.724 76.043 582.046 75.293 582.689 74.693C583.331 74.0501 584.124 73.7287 585.067 73.7287C586.01 73.7287 586.803 74.0287 587.446 74.6287C588.089 75.2287 588.41 75.9787 588.41 76.8787C588.41 77.8216 588.089 78.6144 587.446 79.2573C586.846 79.9001 586.053 80.2216 585.067 80.2216Z" fill="white"/>
<path d="M553.145 134.222C550.059 134.222 547.102 133.772 544.273 132.872C541.445 131.972 539.152 130.686 537.395 129.014L539.709 125.543C541.295 126.957 543.245 128.072 545.559 128.886C547.916 129.743 550.402 130.172 553.016 130.172C557.302 130.172 560.452 129.164 562.466 127.15C564.481 125.179 565.488 122.093 565.488 117.893V109.472L566.13 103.686L565.68 97.9001V87.6787H570.052V117.314C570.052 123.143 568.616 127.407 565.745 130.107C562.916 132.85 558.716 134.222 553.145 134.222ZM552.309 120.143C549.095 120.143 546.202 119.457 543.631 118.086C541.059 116.672 539.023 114.722 537.523 112.236C536.066 109.75 535.338 106.9 535.338 103.686C535.338 100.472 536.066 97.643 537.523 95.2001C539.023 92.7144 541.059 90.7858 543.631 89.4144C546.202 88.043 549.095 87.3572 552.309 87.3572C555.309 87.3572 558.009 87.9787 560.409 89.2215C562.809 90.4644 564.716 92.3072 566.13 94.7501C567.545 97.193 568.252 100.172 568.252 103.686C568.252 107.2 567.545 110.179 566.13 112.622C564.716 115.064 562.809 116.929 560.409 118.214C558.009 119.5 555.309 120.143 552.309 120.143ZM552.759 116.093C555.245 116.093 557.452 115.579 559.38 114.55C561.309 113.479 562.83 112.022 563.945 110.179C565.059 108.293 565.616 106.129 565.616 103.686C565.616 101.243 565.059 99.1001 563.945 97.2572C562.83 95.4144 561.309 93.9787 559.38 92.9501C557.452 91.8787 555.245 91.343 552.759 91.343C550.316 91.343 548.109 91.8787 546.138 92.9501C544.209 93.9787 542.688 95.4144 541.573 97.2572C540.502 99.1001 539.966 101.243 539.966 103.686C539.966 106.129 540.502 108.293 541.573 110.179C542.688 112.022 544.209 113.479 546.138 114.55C548.109 115.579 550.316 116.093 552.759 116.093Z" fill="white"/>
<path d="M521.48 121.429V87.6787H526.044V121.429H521.48ZM523.795 80.2216C522.852 80.2216 522.059 79.9001 521.416 79.2573C520.773 78.6144 520.452 77.843 520.452 76.943C520.452 76.043 520.773 75.293 521.416 74.693C522.059 74.0501 522.852 73.7287 523.795 73.7287C524.737 73.7287 525.53 74.0287 526.173 74.6287C526.816 75.2287 527.137 75.9787 527.137 76.8787C527.137 77.8216 526.816 78.6144 526.173 79.2573C525.573 79.9001 524.78 80.2216 523.795 80.2216Z" fill="white"/>
<path d="M469.333 121.429V76.4287H487.655C492.455 76.4287 496.655 77.393 500.255 79.3216C503.898 81.2073 506.726 83.843 508.74 87.2287C510.755 90.6144 511.762 94.5144 511.762 98.9287C511.762 103.343 510.755 107.243 508.74 110.629C506.726 114.014 503.898 116.672 500.255 118.6C496.655 120.486 492.455 121.429 487.655 121.429H469.333ZM474.09 117.314H487.398C491.383 117.314 494.833 116.543 497.748 115C500.705 113.414 502.998 111.25 504.626 108.507C506.255 105.722 507.069 102.529 507.069 98.9287C507.069 95.2859 506.255 92.093 504.626 89.3501C502.998 86.6073 500.705 84.4644 497.748 82.9216C494.833 81.3359 491.383 80.543 487.398 80.543H474.09V117.314Z" fill="white"/>
<path d="M426.113 122.007C421.998 122.007 418.398 121.236 415.313 119.693C412.27 118.107 409.891 115.964 408.177 113.264C406.506 110.522 405.67 107.414 405.67 103.943C405.67 100.472 406.484 97.3859 408.113 94.6859C409.784 91.943 412.077 89.8216 414.991 88.3216C417.906 86.7788 421.184 86.0073 424.827 86.0073C428.256 86.0073 431.384 86.7145 434.213 88.1288C437.041 89.5002 439.291 91.5359 440.963 94.2359C442.634 96.9359 443.47 100.214 443.47 104.072C443.47 104.5 443.448 104.993 443.406 105.55C443.363 106.107 443.32 106.622 443.277 107.093H415.698V100.664H436.784L432.156 102.464C432.198 100.879 431.898 99.5073 431.256 98.3502C430.656 97.193 429.798 96.293 428.684 95.6502C427.613 95.0073 426.348 94.6859 424.891 94.6859C423.434 94.6859 422.148 95.0073 421.034 95.6502C419.963 96.293 419.127 97.2145 418.527 98.4145C417.927 99.5716 417.627 100.943 417.627 102.529V104.393C417.627 106.107 417.97 107.586 418.656 108.829C419.384 110.072 420.413 111.036 421.741 111.722C423.07 112.364 424.656 112.686 426.498 112.686C428.213 112.686 429.67 112.45 430.87 111.979C432.113 111.464 433.334 110.693 434.534 109.664L440.963 116.35C439.291 118.193 437.234 119.607 434.791 120.593C432.348 121.536 429.456 122.007 426.113 122.007Z" fill="white"/>
<path d="M387.704 121.429V73.7287H399.918V121.429H387.704Z" fill="white"/>
<path d="M366.902 122.007C363.044 122.007 359.594 121.236 356.552 119.693C353.552 118.15 351.194 116.029 349.48 113.329C347.766 110.586 346.909 107.457 346.909 103.943C346.909 100.429 347.766 97.3216 349.48 94.6216C351.194 91.9216 353.552 89.8216 356.552 88.3216C359.594 86.7788 363.044 86.0073 366.902 86.0073C370.844 86.0073 374.252 86.843 377.123 88.5145C379.994 90.1859 382.03 92.543 383.23 95.5859L373.78 100.407C372.966 98.7788 371.959 97.6002 370.759 96.8716C369.559 96.1002 368.252 95.7145 366.837 95.7145C365.423 95.7145 364.137 96.0359 362.98 96.6788C361.823 97.3216 360.902 98.2645 360.216 99.5073C359.573 100.707 359.252 102.186 359.252 103.943C359.252 105.743 359.573 107.264 360.216 108.507C360.902 109.75 361.823 110.693 362.98 111.336C364.137 111.979 365.423 112.3 366.837 112.3C368.252 112.3 369.559 111.936 370.759 111.207C371.959 110.436 372.966 109.236 373.78 107.607L383.23 112.429C382.03 115.472 379.994 117.829 377.123 119.5C374.252 121.172 370.844 122.007 366.902 122.007Z" fill="white"/>
<path d="M321.032 121.429V86.5859H332.668V96.743L330.932 93.8502C331.961 91.2359 333.632 89.2859 335.947 88.0002C338.261 86.6716 341.068 86.0073 344.368 86.0073V97.0002C343.811 96.9145 343.318 96.8716 342.889 96.8716C342.504 96.8288 342.075 96.8073 341.604 96.8073C339.118 96.8073 337.104 97.493 335.561 98.8645C334.018 100.193 333.247 102.379 333.247 105.422V121.429H321.032Z" fill="white"/>
<path d="M300.88 121.429V86.5859H313.095V121.429H300.88ZM306.987 82.7288C304.759 82.7288 302.959 82.1073 301.587 80.8645C300.216 79.6216 299.53 78.0788 299.53 76.2359C299.53 74.393 300.216 72.8502 301.587 71.6073C302.959 70.3645 304.759 69.743 306.987 69.743C309.216 69.743 311.016 70.343 312.387 71.543C313.759 72.7002 314.445 74.2002 314.445 76.043C314.445 77.9716 313.759 79.5788 312.387 80.8645C311.059 82.1073 309.259 82.7288 306.987 82.7288Z" fill="white"/>
<path d="M276.936 122.329C273.379 122.329 270.079 121.771 267.036 120.657C264.036 119.5 261.422 117.871 259.193 115.771C257.007 113.671 255.293 111.207 254.05 108.379C252.807 105.507 252.186 102.357 252.186 98.9286C252.186 95.5 252.807 92.3714 254.05 89.5429C255.293 86.6714 257.007 84.1857 259.193 82.0857C261.422 79.9857 264.036 78.3786 267.036 77.2643C270.079 76.1071 273.379 75.5286 276.936 75.5286C281.093 75.5286 284.8 76.2571 288.057 77.7143C291.357 79.1714 294.1 81.2714 296.286 84.0143L288.186 91.3429C286.729 89.6286 285.122 88.3214 283.365 87.4214C281.65 86.5214 279.722 86.0714 277.579 86.0714C275.736 86.0714 274.043 86.3714 272.5 86.9714C270.957 87.5714 269.629 88.45 268.515 89.6071C267.443 90.7214 266.586 92.0714 265.943 93.6571C265.343 95.2429 265.043 97 265.043 98.9286C265.043 100.857 265.343 102.614 265.943 104.2C266.586 105.786 267.443 107.157 268.515 108.314C269.629 109.429 270.957 110.286 272.5 110.886C274.043 111.486 275.736 111.786 277.579 111.786C279.722 111.786 281.65 111.336 283.365 110.436C285.122 109.536 286.729 108.229 288.186 106.514L296.286 113.843C294.1 116.543 291.357 118.643 288.057 120.143C284.8 121.6 281.093 122.329 276.936 122.329Z" fill="white"/>
<defs>
<linearGradient id="paint0_linear_2_958" x1="200" y1="100" x2="0" y2="100" gradientUnits="userSpaceOnUse">
<stop stop-color="#76A0DA"/>
<stop offset="1" stop-color="#3B506F"/>
</linearGradient>
<linearGradient id="paint1_linear_2_958" x1="189.286" y1="157.143" x2="24.9999" y2="157.143" gradientUnits="userSpaceOnUse">
<stop offset="0.5" stop-color="#3B506F"/>
<stop offset="1" stop-color="#76A0DA"/>
</linearGradient>
<linearGradient id="paint2_linear_2_958" x1="189.286" y1="158.353" x2="25" y2="158.353" gradientUnits="userSpaceOnUse">
<stop stop-color="#76A0DA"/>
<stop offset="1" stop-color="#3B506F"/>
</linearGradient>
<linearGradient id="paint3_linear_2_958" x1="10.7144" y1="42.9551" x2="176.655" y2="42.9551" gradientUnits="userSpaceOnUse">
<stop offset="0.200934" stop-color="#76A0DA"/>
<stop offset="1" stop-color="#0A0C11"/>
</linearGradient>
</defs>
</svg>
