<svg width="977" height="200" viewBox="0 0 977 200" fill="none" xmlns="http://www.w3.org/2000/svg">
<path fill-rule="evenodd" clip-rule="evenodd" d="M100 200C155.228 200 200 155.228 200 100C200 44.7715 155.228 0 100 0C44.7715 0 0 44.7715 0 100C0 155.228 44.7715 200 100 200ZM99.9999 158.929C132.545 158.929 158.929 132.545 158.929 100C158.929 67.4546 132.545 41.0714 99.9999 41.0714C67.4546 41.0714 41.0714 67.4546 41.0714 100C41.0714 132.545 67.4546 158.929 99.9999 158.929Z" fill="url(#paint0_linear_2_959)"/>
<path d="M97.3546 146.551C138.016 192.873 178.678 164.367 189.286 144.769C180.446 163.179 152.16 200 100.89 200C51.3891 200 30.7635 171.494 26.6384 157.241C19.5668 133.01 37.2458 119.826 44.3174 116.263C69.0681 107.355 84.9793 130.516 97.3546 146.551Z" fill="url(#paint1_linear_2_959)"/>
<path fill-rule="evenodd" clip-rule="evenodd" d="M91.3182 199.628C94.2365 199.86 97.2692 199.988 100.42 199.999C124.26 199.901 146.132 191.461 163.267 177.446C176.552 166.335 185.1 153.488 189.286 144.769C179.728 162.428 145.768 187.32 109.395 158.184C106.335 158.674 103.197 158.929 100 158.929C73.2579 158.929 50.6764 141.115 43.4734 116.707C35.9467 120.837 19.8338 133.925 26.6385 157.241C29.1618 165.959 37.8591 180.011 55.5628 189.609C66.4964 195.041 78.5653 198.532 91.3182 199.628Z" fill="url(#paint2_linear_2_959)"/>
<path opacity="0.9" d="M103.572 53.5714C62.5001 7.14287 21.4286 35.7142 10.7144 55.3571C19.6429 36.9048 48.2144 0 100 0C150 0 170.833 28.5714 175 42.8572C182.143 67.1429 164.286 80.3571 157.143 83.9286C132.143 92.8571 116.072 69.6429 103.572 53.5714Z" fill="url(#paint3_linear_2_959)"/>
<path d="M962.494 121.75C959.708 121.75 957.073 121.364 954.587 120.593C952.101 119.779 950.151 118.772 948.737 117.572L950.794 113.972C952.165 115 953.923 115.9 956.065 116.672C958.208 117.4 960.458 117.764 962.815 117.764C966.03 117.764 968.344 117.272 969.758 116.286C971.173 115.257 971.88 113.907 971.88 112.236C971.88 110.993 971.473 110.029 970.658 109.343C969.887 108.614 968.858 108.079 967.573 107.736C966.287 107.35 964.851 107.029 963.265 106.772C961.68 106.514 960.094 106.214 958.508 105.872C956.965 105.529 955.551 105.036 954.265 104.393C952.98 103.707 951.93 102.786 951.115 101.629C950.344 100.472 949.958 98.9287 949.958 97.0002C949.958 95.1573 950.473 93.5073 951.501 92.0501C952.53 90.593 954.03 89.4573 956.001 88.643C958.015 87.7859 960.458 87.3573 963.33 87.3573C965.515 87.3573 967.701 87.6573 969.887 88.2573C972.073 88.8144 973.873 89.5644 975.287 90.5073L973.294 94.1716C971.794 93.143 970.187 92.4144 968.473 91.9859C966.758 91.5144 965.044 91.2787 963.33 91.2787C960.287 91.2787 958.037 91.8144 956.58 92.8859C955.165 93.9144 954.458 95.243 954.458 96.8716C954.458 98.1573 954.844 99.1644 955.615 99.893C956.43 100.622 957.48 101.2 958.765 101.629C960.094 102.014 961.53 102.336 963.073 102.593C964.658 102.85 966.223 103.172 967.765 103.557C969.351 103.9 970.787 104.393 972.073 105.036C973.401 105.636 974.451 106.514 975.223 107.672C976.037 108.786 976.444 110.264 976.444 112.107C976.444 114.079 975.887 115.793 974.773 117.25C973.701 118.664 972.115 119.779 970.015 120.593C967.958 121.364 965.451 121.75 962.494 121.75Z" fill="#0A0C11"/>
<path d="M928.967 121.75C925.453 121.75 922.367 121.022 919.71 119.564C917.053 118.064 914.975 116.029 913.475 113.457C911.975 110.843 911.225 107.864 911.225 104.522C911.225 101.179 911.932 98.2216 913.346 95.6502C914.803 93.0787 916.775 91.0644 919.26 89.6073C921.789 88.1073 924.617 87.3573 927.746 87.3573C930.917 87.3573 933.725 88.0859 936.167 89.543C938.653 90.9573 940.603 92.9716 942.017 95.5859C943.432 98.1573 944.139 101.136 944.139 104.522C944.139 104.736 944.117 104.972 944.075 105.229C944.075 105.443 944.075 105.679 944.075 105.936H914.696V102.529H941.632L939.832 103.879C939.832 101.436 939.296 99.2716 938.225 97.3859C937.196 95.4573 935.782 93.9573 933.982 92.8859C932.182 91.8144 930.103 91.2787 927.746 91.2787C925.432 91.2787 923.353 91.8144 921.51 92.8859C919.667 93.9573 918.232 95.4573 917.203 97.3859C916.175 99.3144 915.66 101.522 915.66 104.007V104.714C915.66 107.286 916.217 109.557 917.332 111.529C918.489 113.457 920.075 114.979 922.089 116.093C924.146 117.164 926.482 117.7 929.096 117.7C931.153 117.7 933.06 117.336 934.817 116.607C936.617 115.879 938.16 114.764 939.446 113.264L942.017 116.222C940.517 118.022 938.632 119.393 936.36 120.336C934.132 121.279 931.667 121.75 928.967 121.75Z" fill="#0A0C11"/>
<path d="M889.647 121.429V87.6787H894.018V96.8716L893.568 95.2644C894.511 92.693 896.097 90.743 898.326 89.4144C900.554 88.043 903.318 87.3573 906.618 87.3573V91.793C906.447 91.793 906.276 91.793 906.104 91.793C905.933 91.7501 905.761 91.7287 905.59 91.7287C902.033 91.7287 899.247 92.8216 897.233 95.0073C895.218 97.1501 894.211 100.214 894.211 104.2V121.429H889.647Z" fill="#0A0C11"/>
<path d="M860.404 121.75C857.533 121.75 855.026 121.214 852.883 120.143C850.74 119.072 849.068 117.464 847.868 115.322C846.711 113.179 846.133 110.5 846.133 107.286V87.6787H850.697V106.772C850.697 110.372 851.576 113.093 853.333 114.936C855.133 116.736 857.64 117.636 860.854 117.636C863.211 117.636 865.247 117.164 866.961 116.222C868.719 115.236 870.047 113.822 870.947 111.979C871.89 110.136 872.361 107.929 872.361 105.357V87.6787H876.926V121.429H872.554V112.172L873.261 113.843C872.19 116.329 870.519 118.279 868.247 119.693C866.019 121.064 863.404 121.75 860.404 121.75Z" fill="#0A0C11"/>
<path d="M831.008 121.75C827.837 121.75 825.394 120.893 823.68 119.179C821.965 117.464 821.108 115.043 821.108 111.914V80.2215H825.673V111.657C825.673 113.629 826.165 115.15 827.151 116.222C828.18 117.293 829.637 117.829 831.523 117.829C833.537 117.829 835.208 117.25 836.537 116.093L838.144 119.372C837.244 120.186 836.151 120.786 834.865 121.172C833.623 121.557 832.337 121.75 831.008 121.75ZM815.065 91.4715V87.6787H835.958V91.4715H815.065Z" fill="#0A0C11"/>
<path d="M776.895 121.429V87.6787H781.266V96.9359L780.559 95.2001C781.631 92.7573 783.345 90.8501 785.702 89.4787C788.059 88.0644 790.866 87.3573 794.124 87.3573C796.866 87.3573 799.266 87.893 801.324 88.9644C803.424 89.993 805.052 91.5787 806.209 93.7216C807.409 95.8644 808.009 98.5644 808.009 101.822V121.429H803.445V102.272C803.445 98.7144 802.545 96.0359 800.745 94.2359C798.988 92.393 796.502 91.4716 793.288 91.4716C790.888 91.4716 788.788 91.9644 786.988 92.9501C785.231 93.893 783.859 95.2859 782.874 97.1287C781.931 98.9287 781.459 101.114 781.459 103.686V121.429H776.895Z" fill="#0A0C11"/>
<path d="M752.432 121.75C748.918 121.75 745.832 121.022 743.175 119.564C740.518 118.064 738.439 116.029 736.939 113.457C735.439 110.843 734.689 107.864 734.689 104.522C734.689 101.179 735.397 98.2215 736.811 95.6501C738.268 93.0787 740.239 91.0644 742.725 89.6072C745.254 88.1072 748.082 87.3572 751.211 87.3572C754.382 87.3572 757.189 88.0858 759.632 89.5429C762.118 90.9572 764.068 92.9715 765.482 95.5858C766.897 98.1572 767.604 101.136 767.604 104.522C767.604 104.736 767.582 104.972 767.539 105.229C767.539 105.443 767.539 105.679 767.539 105.936H738.161V102.529H765.097L763.297 103.879C763.297 101.436 762.761 99.2715 761.689 97.3858C760.661 95.4572 759.247 93.9572 757.447 92.8858C755.647 91.8144 753.568 91.2787 751.211 91.2787C748.897 91.2787 746.818 91.8144 744.975 92.8858C743.132 93.9572 741.697 95.4572 740.668 97.3858C739.639 99.3144 739.125 101.522 739.125 104.007V104.714C739.125 107.286 739.682 109.557 740.797 111.529C741.954 113.457 743.539 114.979 745.554 116.093C747.611 117.164 749.947 117.7 752.561 117.7C754.618 117.7 756.525 117.336 758.282 116.607C760.082 115.879 761.625 114.764 762.911 113.264L765.482 116.222C763.982 118.022 762.097 119.393 759.825 120.336C757.597 121.279 755.132 121.75 752.432 121.75Z" fill="#0A0C11"/>
<path d="M710.481 121.429L690.553 76.4287H695.696L714.338 118.793H711.51L730.281 76.4287H735.103L715.174 121.429H710.481Z" fill="#0A0C11"/>
<path d="M662.637 121.429V73.7286H667.201V121.429H662.637Z" fill="#0A0C11"/>
<path d="M645.867 121.429V113.972L645.674 112.75V100.279C645.674 97.4072 644.86 95.2001 643.231 93.6572C641.645 92.1144 639.267 91.3429 636.095 91.3429C633.91 91.3429 631.831 91.7072 629.86 92.4358C627.888 93.1644 626.217 94.1287 624.845 95.3287L622.788 91.9215C624.502 90.4644 626.56 89.3501 628.96 88.5787C631.36 87.7644 633.888 87.3572 636.545 87.3572C640.917 87.3572 644.281 88.4501 646.638 90.6358C649.038 92.7787 650.238 96.0572 650.238 100.472V121.429H645.867ZM634.231 121.75C631.702 121.75 629.495 121.343 627.61 120.529C625.767 119.672 624.352 118.514 623.367 117.057C622.381 115.557 621.888 113.843 621.888 111.914C621.888 110.157 622.295 108.572 623.11 107.157C623.967 105.7 625.338 104.543 627.224 103.686C629.152 102.786 631.724 102.336 634.938 102.336H646.574V105.743H635.067C631.81 105.743 629.538 106.322 628.252 107.479C627.01 108.636 626.388 110.072 626.388 111.786C626.388 113.714 627.138 115.257 628.638 116.414C630.138 117.572 632.238 118.15 634.938 118.15C637.51 118.15 639.717 117.572 641.56 116.414C643.445 115.214 644.817 113.5 645.674 111.272L646.702 114.422C645.845 116.65 644.345 118.429 642.202 119.757C640.102 121.086 637.445 121.75 634.231 121.75Z" fill="#0A0C11"/>
<path d="M610.528 121.75C607.356 121.75 604.914 120.893 603.199 119.179C601.485 117.464 600.628 115.043 600.628 111.914V80.2215H605.192V111.657C605.192 113.629 605.685 115.15 606.671 116.221C607.699 117.293 609.156 117.829 611.042 117.829C613.056 117.829 614.728 117.25 616.056 116.093L617.664 119.371C616.764 120.186 615.671 120.786 614.385 121.171C613.142 121.557 611.856 121.75 610.528 121.75ZM594.585 91.4714V87.6786H615.478V91.4714H594.585Z" fill="#0A0C11"/>
<path d="M583.158 121.429V87.6786H587.723V121.429H583.158ZM585.473 80.2215C584.53 80.2215 583.737 79.9001 583.094 79.2572C582.451 78.6143 582.13 77.8429 582.13 76.9429C582.13 76.0429 582.451 75.2929 583.094 74.6929C583.737 74.0501 584.53 73.7286 585.473 73.7286C586.416 73.7286 587.208 74.0286 587.851 74.6286C588.494 75.2286 588.816 75.9786 588.816 76.8786C588.816 77.8215 588.494 78.6143 587.851 79.2572C587.251 79.9001 586.458 80.2215 585.473 80.2215Z" fill="#0A0C11"/>
<path d="M553.549 134.222C550.464 134.222 547.506 133.772 544.678 132.872C541.849 131.972 539.556 130.686 537.799 129.014L540.114 125.543C541.699 126.957 543.649 128.072 545.964 128.886C548.321 129.743 550.806 130.172 553.421 130.172C557.706 130.172 560.856 129.164 562.871 127.15C564.885 125.179 565.892 122.093 565.892 117.893V109.472L566.535 103.686L566.085 97.9001V87.6787H570.456V117.314C570.456 123.143 569.021 127.407 566.149 130.107C563.321 132.85 559.121 134.222 553.549 134.222ZM552.714 120.143C549.499 120.143 546.606 119.457 544.035 118.086C541.464 116.672 539.428 114.722 537.928 112.236C536.471 109.75 535.742 106.9 535.742 103.686C535.742 100.472 536.471 97.6429 537.928 95.2001C539.428 92.7144 541.464 90.7858 544.035 89.4144C546.606 88.0429 549.499 87.3572 552.714 87.3572C555.714 87.3572 558.414 87.9787 560.814 89.2215C563.214 90.4644 565.121 92.3072 566.535 94.7501C567.949 97.1929 568.656 100.172 568.656 103.686C568.656 107.2 567.949 110.179 566.535 112.622C565.121 115.064 563.214 116.929 560.814 118.214C558.414 119.5 555.714 120.143 552.714 120.143ZM553.164 116.093C555.649 116.093 557.856 115.579 559.785 114.55C561.714 113.479 563.235 112.022 564.349 110.179C565.464 108.293 566.021 106.129 566.021 103.686C566.021 101.243 565.464 99.1001 564.349 97.2572C563.235 95.4144 561.714 93.9787 559.785 92.9501C557.856 91.8787 555.649 91.3429 553.164 91.3429C550.721 91.3429 548.514 91.8787 546.542 92.9501C544.614 93.9787 543.092 95.4144 541.978 97.2572C540.906 99.1001 540.371 101.243 540.371 103.686C540.371 106.129 540.906 108.293 541.978 110.179C543.092 112.022 544.614 113.479 546.542 114.55C548.514 115.579 550.721 116.093 553.164 116.093Z" fill="#0A0C11"/>
<path d="M521.885 121.429V87.6786H526.45V121.429H521.885ZM524.2 80.2215C523.257 80.2215 522.464 79.9001 521.821 79.2572C521.178 78.6143 520.857 77.8429 520.857 76.9429C520.857 76.0429 521.178 75.2929 521.821 74.6929C522.464 74.0501 523.257 73.7286 524.2 73.7286C525.143 73.7286 525.935 74.0286 526.578 74.6286C527.221 75.2286 527.543 75.9786 527.543 76.8786C527.543 77.8215 527.221 78.6143 526.578 79.2572C525.978 79.9001 525.185 80.2215 524.2 80.2215Z" fill="#0A0C11"/>
<path d="M469.739 121.429V76.4287H488.06C492.86 76.4287 497.06 77.393 500.66 79.3215C504.303 81.2073 507.132 83.843 509.146 87.2287C511.16 90.6144 512.167 94.5144 512.167 98.9287C512.167 103.343 511.16 107.243 509.146 110.629C507.132 114.014 504.303 116.672 500.66 118.6C497.06 120.486 492.86 121.429 488.06 121.429H469.739ZM474.496 117.314H487.803C491.789 117.314 495.239 116.543 498.153 115C501.11 113.414 503.403 111.25 505.032 108.507C506.66 105.722 507.475 102.529 507.475 98.9287C507.475 95.2858 506.66 92.093 505.032 89.3501C503.403 86.6073 501.11 84.4644 498.153 82.9215C495.239 81.3358 491.789 80.543 487.803 80.543H474.496V117.314Z" fill="#0A0C11"/>
<path d="M426.518 122.007C422.404 122.007 418.804 121.236 415.718 119.693C412.675 118.107 410.297 115.964 408.583 113.264C406.911 110.522 406.075 107.414 406.075 103.943C406.075 100.472 406.89 97.3859 408.518 94.6859C410.19 91.943 412.483 89.8216 415.397 88.3216C418.311 86.7788 421.59 86.0073 425.233 86.0073C428.661 86.0073 431.79 86.7145 434.618 88.1288C437.447 89.5002 439.697 91.5359 441.368 94.2359C443.04 96.9359 443.875 100.214 443.875 104.072C443.875 104.5 443.854 104.993 443.811 105.55C443.768 106.107 443.725 106.622 443.683 107.093H416.104V100.664H437.19L432.561 102.464C432.604 100.879 432.304 99.5073 431.661 98.3502C431.061 97.193 430.204 96.293 429.09 95.6502C428.018 95.0073 426.754 94.6859 425.297 94.6859C423.84 94.6859 422.554 95.0073 421.44 95.6502C420.368 96.293 419.533 97.2145 418.933 98.4145C418.333 99.5716 418.033 100.943 418.033 102.529V104.393C418.033 106.107 418.375 107.586 419.061 108.829C419.79 110.072 420.818 111.036 422.147 111.722C423.475 112.364 425.061 112.686 426.904 112.686C428.618 112.686 430.075 112.45 431.275 111.979C432.518 111.464 433.74 110.693 434.94 109.664L441.368 116.35C439.697 118.193 437.64 119.607 435.197 120.593C432.754 121.536 429.861 122.007 426.518 122.007Z" fill="#0A0C11"/>
<path d="M388.108 121.429V73.7286H400.322V121.429H388.108Z" fill="#0A0C11"/>
<path d="M367.307 122.007C363.45 122.007 360 121.236 356.957 119.693C353.957 118.15 351.6 116.029 349.886 113.329C348.171 110.586 347.314 107.457 347.314 103.943C347.314 100.429 348.171 97.3216 349.886 94.6216C351.6 91.9216 353.957 89.8216 356.957 88.3216C360 86.7788 363.45 86.0073 367.307 86.0073C371.25 86.0073 374.657 86.843 377.528 88.5145C380.4 90.1859 382.436 92.543 383.636 95.5859L374.186 100.407C373.371 98.7788 372.364 97.6002 371.164 96.8716C369.964 96.1002 368.657 95.7145 367.243 95.7145C365.829 95.7145 364.543 96.0359 363.386 96.6788C362.228 97.3216 361.307 98.2645 360.621 99.5073C359.978 100.707 359.657 102.186 359.657 103.943C359.657 105.743 359.978 107.264 360.621 108.507C361.307 109.75 362.228 110.693 363.386 111.336C364.543 111.979 365.829 112.3 367.243 112.3C368.657 112.3 369.964 111.936 371.164 111.207C372.364 110.436 373.371 109.236 374.186 107.607L383.636 112.429C382.436 115.472 380.4 117.829 377.528 119.5C374.657 121.172 371.25 122.007 367.307 122.007Z" fill="#0A0C11"/>
<path d="M321.437 121.429V86.5859H333.073V96.743L331.337 93.8502C332.366 91.2359 334.037 89.2859 336.352 88.0002C338.666 86.6716 341.473 86.0073 344.773 86.0073V97.0002C344.216 96.9145 343.723 96.8716 343.294 96.8716C342.909 96.8288 342.48 96.8073 342.009 96.8073C339.523 96.8073 337.509 97.493 335.966 98.8645C334.423 100.193 333.652 102.379 333.652 105.422V121.429H321.437Z" fill="#0A0C11"/>
<path d="M301.285 121.429V86.5859H313.499V121.429H301.285ZM307.392 82.7288C305.164 82.7288 303.364 82.1073 301.992 80.8645C300.621 79.6216 299.935 78.0788 299.935 76.2359C299.935 74.3931 300.621 72.8502 301.992 71.6073C303.364 70.3645 305.164 69.7431 307.392 69.7431C309.621 69.7431 311.421 70.3431 312.792 71.5431C314.164 72.7002 314.849 74.2002 314.849 76.0431C314.849 77.9716 314.164 79.5788 312.792 80.8645C311.464 82.1073 309.664 82.7288 307.392 82.7288Z" fill="#0A0C11"/>
<path d="M277.34 122.329C273.783 122.329 270.483 121.771 267.44 120.657C264.44 119.5 261.826 117.871 259.597 115.771C257.412 113.671 255.697 111.207 254.455 108.379C253.212 105.507 252.59 102.357 252.59 98.9286C252.59 95.5001 253.212 92.3715 254.455 89.5429C255.697 86.6715 257.412 84.1858 259.597 82.0858C261.826 79.9858 264.44 78.3786 267.44 77.2643C270.483 76.1072 273.783 75.5286 277.34 75.5286C281.497 75.5286 285.205 76.2572 288.462 77.7143C291.762 79.1715 294.505 81.2715 296.69 84.0143L288.59 91.3429C287.133 89.6286 285.526 88.3215 283.769 87.4215C282.055 86.5215 280.126 86.0715 277.983 86.0715C276.14 86.0715 274.447 86.3715 272.905 86.9715C271.362 87.5715 270.033 88.4501 268.919 89.6072C267.847 90.7215 266.99 92.0715 266.347 93.6572C265.747 95.2429 265.447 97.0001 265.447 98.9286C265.447 100.857 265.747 102.614 266.347 104.2C266.99 105.786 267.847 107.157 268.919 108.314C270.033 109.429 271.362 110.286 272.905 110.886C274.447 111.486 276.14 111.786 277.983 111.786C280.126 111.786 282.055 111.336 283.769 110.436C285.526 109.536 287.133 108.229 288.59 106.514L296.69 113.843C294.505 116.543 291.762 118.643 288.462 120.143C285.205 121.6 281.497 122.329 277.34 122.329Z" fill="#0A0C11"/>
<defs>
<linearGradient id="paint0_linear_2_959" x1="200" y1="100" x2="0" y2="100" gradientUnits="userSpaceOnUse">
<stop stop-color="#76A0DA"/>
<stop offset="1" stop-color="#3B506F"/>
</linearGradient>
<linearGradient id="paint1_linear_2_959" x1="189.286" y1="157.143" x2="24.9999" y2="157.143" gradientUnits="userSpaceOnUse">
<stop offset="0.5" stop-color="#3B506F"/>
<stop offset="1" stop-color="#76A0DA"/>
</linearGradient>
<linearGradient id="paint2_linear_2_959" x1="189.286" y1="158.353" x2="25" y2="158.353" gradientUnits="userSpaceOnUse">
<stop stop-color="#76A0DA"/>
<stop offset="1" stop-color="#3B506F"/>
</linearGradient>
<linearGradient id="paint3_linear_2_959" x1="10.7144" y1="42.9551" x2="176.655" y2="42.9551" gradientUnits="userSpaceOnUse">
<stop offset="0.200934" stop-color="#76A0DA"/>
<stop offset="1" stop-color="#0A0C11"/>
</linearGradient>
</defs>
</svg>
